<?xml version="1.0" standalone="no"?>
<!DOCTYPE svg PUBLIC "-//W3C//DTD SVG 20010904//EN"
 "http://www.w3.org/TR/2001/REC-SVG-20010904/DTD/svg10.dtd">
<svg version="1.0" xmlns="http://www.w3.org/2000/svg"
 width="1280.000000pt" height="1280.000000pt" viewBox="0 0 1280.000000 1280.000000"
 preserveAspectRatio="xMidYMid meet">

<g transform="translate(0.000000,1280.000000) scale(0.100000,-0.100000)"
fill="#000000" stroke="none">
<path d="M0 6400 l0 -6400 6400 0 6400 0 0 6400 0 6400 -6400 0 -6400 0 0
-6400z m7195 2100 c995 -52 1873 -176 2656 -374 1868 -474 2802 -1269 2434
-2071 -251 -550 -1116 -1042 -2410 -1370 -1085 -275 -2344 -409 -3690 -392
-1017 14 -1867 97 -2725 267 -1496 296 -2551 804 -2916 1402 -144 236 -164
509 -56 768 89 209 328 465 617 657 777 517 2092 895 3665 1053 351 35 673 55
1175 74 170 6 1050 -3 1250 -14z"/>
<path d="M6125 8333 c-1740 -24 -3385 -322 -4416 -799 -600 -278 -964 -599
-1070 -944 -33 -107 -33 -274 0 -380 104 -334 419 -624 976 -900 1841 -910
5568 -1124 8204 -470 975 242 1695 577 2067 962 132 137 209 258 256 408 33
106 33 273 0 380 -141 452 -716 858 -1667 1175 -1168 390 -2709 591 -4350 568z
m-774 -388 c80 -7 285 -36 455 -64 644 -105 905 -131 1390 -138 404 -6 524 1
733 43 139 27 184 25 208 -12 57 -87 -152 -247 -449 -345 -179 -59 -322 -76
-512 -61 -301 23 -524 76 -1047 248 -125 41 -231 74 -237 74 -6 0 -9 -7 -5
-15 6 -18 -68 -94 -213 -218 -159 -137 -390 -421 -483 -595 l-13 -24 69 7
c103 10 395 46 419 51 20 5 21 9 12 47 -20 90 30 226 103 279 111 82 273 0
255 -130 -13 -98 -79 -190 -175 -247 -28 -16 -51 -34 -51 -38 0 -17 51 -58 80
-63 31 -7 34 -13 24 -51 -5 -16 -14 -23 -32 -23 -41 0 -112 40 -135 76 -25 39
-26 39 -150 19 -111 -18 -430 -55 -472 -55 -28 0 -37 -11 -134 -168 -341 -546
-584 -877 -788 -1073 -170 -163 -318 -237 -518 -260 -256 -29 -455 31 -611
186 -126 124 -184 265 -184 450 0 266 190 509 484 620 76 29 123 29 140 3 15
-25 -1 -47 -60 -81 -104 -61 -209 -190 -254 -314 -18 -50 -21 -77 -18 -145 6
-140 73 -250 186 -305 52 -25 66 -28 157 -27 123 2 203 22 320 79 213 106 455
328 730 670 129 161 258 335 253 340 -2 2 -52 -3 -111 -11 -148 -20 -271 -58
-333 -100 -53 -36 -79 -37 -89 -3 -16 49 73 124 204 170 84 30 241 63 352 74
l66 7 61 88 c137 198 359 446 528 592 94 80 260 198 281 198 7 0 13 4 13 8 0
9 -268 69 -460 103 -148 26 -410 36 -561 20 -503 -52 -830 -266 -865 -564 -17
-145 82 -250 221 -233 157 18 359 144 449 280 38 58 61 73 82 55 55 -46 -62
-287 -211 -434 -88 -87 -159 -134 -263 -173 -56 -21 -85 -25 -177 -26 -133 -1
-176 15 -264 99 -179 171 -183 457 -10 688 173 230 526 384 979 425 151 14
472 13 631 -3z m4535 -821 c-3 -9 -195 -350 -425 -758 -230 -407 -431 -765
-447 -795 -51 -99 -31 -159 49 -146 101 15 259 128 461 327 77 76 147 138 156
138 22 0 40 -20 40 -45 0 -60 -258 -355 -415 -474 -81 -61 -206 -124 -284
-141 -71 -17 -180 -8 -223 17 -37 21 -77 75 -85 114 l-5 25 -96 -48 c-174 -86
-402 -127 -529 -95 -111 29 -173 82 -225 193 -36 77 -50 160 -42 242 l7 64
-29 -15 c-59 -29 -139 -42 -269 -42 -127 0 -132 1 -197 33 -76 37 -127 97
-157 182 l-18 51 -25 -43 c-14 -24 -87 -158 -163 -298 -76 -140 -153 -283
-172 -317 l-34 -63 -171 0 c-146 0 -169 2 -164 15 3 8 103 180 222 382 226
383 258 443 293 556 23 76 18 105 -24 133 -22 15 -31 15 -68 4 -57 -17 -134
-68 -197 -131 -86 -86 -253 -292 -368 -452 -172 -241 -304 -368 -473 -457 -97
-51 -173 -70 -274 -70 -188 0 -340 87 -410 236 -14 29 -25 60 -25 68 0 23 -3
21 -69 -31 -71 -58 -193 -125 -212 -118 -18 7 -59 67 -59 86 0 8 28 35 62 59
34 25 92 74 128 110 60 58 78 87 174 275 130 253 183 331 291 433 128 121 287
192 433 192 59 0 66 -3 93 -31 17 -19 29 -42 29 -59 0 -25 -4 -28 -67 -43 -38
-9 -111 -38 -163 -64 -80 -39 -109 -61 -186 -137 -79 -79 -98 -105 -142 -196
-66 -134 -86 -210 -80 -315 6 -114 46 -183 132 -227 32 -16 54 -19 126 -16 76
3 95 7 165 42 94 46 191 139 274 260 64 94 86 147 106 262 29 169 14 277 -53
372 -26 36 -27 44 -7 87 30 62 107 74 150 24 67 -81 107 -207 109 -346 0 -51
3 -89 7 -85 228 279 374 423 480 476 63 32 81 36 147 36 99 0 149 -16 197 -65
42 -41 65 -97 65 -154 l0 -32 63 63 c122 124 210 168 335 168 93 0 145 -21
190 -75 89 -109 42 -284 -93 -346 -96 -44 -215 -5 -271 88 l-31 53 -34 -23
c-64 -42 -102 -161 -79 -245 14 -53 54 -100 105 -123 80 -37 241 -19 349 39
33 17 132 107 281 252 299 293 381 345 585 371 193 24 314 -39 397 -205 l30
-59 67 114 c37 63 154 259 258 437 l191 322 160 0 c142 0 158 -2 153 -16z"/>
<path d="M5865 7146 c-56 -25 -85 -81 -85 -165 0 -66 10 -77 47 -57 79 40 134
158 103 217 -12 22 -24 23 -65 5z"/>
<path d="M8597 6316 c-255 -107 -478 -417 -480 -666 -1 -150 50 -206 183 -198
155 8 317 144 505 421 69 101 74 112 54 115 -23 4 -22 4 6 82 37 98 17 195
-48 244 -44 32 -146 33 -220 2z"/>
</g>
</svg>
